<svg width="169" height="150" viewBox="0 0 169 150" fill="none" xmlns="http://www.w3.org/2000/svg">
<g clip-path="url(#clip0_18_113)" filter="url(#filter0_d_18_113)">
<path d="M138.347 70.6733C143.577 73.424 148.476 77.1073 153.065 81.6504V88.5968C150.826 87.9751 142.279 85.3981 138.904 81.3224C135.003 76.6121 134.31 69.462 137.558 67.6718C138.404 67.2065 139.432 67.1486 140.56 67.4038C144.116 69.4898 147.517 72.0197 150.765 74.9677C151.917 76.4106 152.629 78.2479 153.065 80.1046V80.1925C148.863 75.4201 143.921 72.3242 138.347 70.6733Z" fill="#FF6863"/>
<path d="M138.084 28.0085C143.314 30.7592 148.213 34.4425 152.802 38.9856V40.5721C152.364 40.4499 151.685 40.2548 150.85 39.9868C147.096 36.3571 142.817 33.9129 138.084 32.5108C141.396 34.2517 144.576 36.3678 147.627 38.8398C144.4 37.5727 140.625 35.6946 138.641 33.2976C138.431 33.0446 138.231 32.7895 138.042 32.5322C134.704 28.0127 134.483 23.0559 137.558 21.3622C140.807 19.572 146.502 22.1083 150.403 26.8164C152.658 29.5414 153.291 33.7693 153.42 36.8459C153.212 37.0689 153.007 37.2961 152.802 37.5277C148.6 32.7552 143.658 29.6593 138.084 28.0085Z" fill="#FF6863"/>
<path d="M167.857 53.3513V53.3535C167.484 54.196 167.016 55.0472 166.459 55.8855C165.631 57.1333 164.359 58.291 162.919 59.3265C161.376 60.4371 159.636 61.4062 158.035 62.193C155.801 63.2929 153.838 64.039 153.065 64.322V63.6466C157.504 59.3373 162.225 55.8254 167.258 53.1798C161.912 54.762 157.152 57.6778 153.065 62.1223V59.1443C157.504 54.8349 162.225 51.3231 167.258 48.6775C161.912 50.2597 157.152 53.1755 153.065 57.6199V54.642C157.447 50.3905 162.099 46.9151 167.058 44.2823C169.382 45.8067 169.584 49.4836 167.857 53.3513Z" fill="#FF6863"/>
<path d="M37.7649 83.4495C58.6219 83.4495 75.5298 69.6574 75.5298 52.644C75.5298 35.6306 58.6219 21.8386 37.7649 21.8386C16.9079 21.8386 0 35.6306 0 52.644C0 69.6574 16.9079 83.4495 37.7649 83.4495Z" fill="#FF6884"/>
<path d="M156.087 102.034C159.263 104.216 160.457 107.322 158.754 108.971C157.051 110.62 153.096 110.187 149.919 108.003C148.635 107.145 147.622 106.048 146.964 104.805L133.649 95.4188L139.182 90.4157L151.721 100.2C153.335 100.518 154.832 101.147 156.087 102.034Z" fill="#FCB4B4"/>
<path d="M145.335 95.0889L129.058 78.0389L113.64 55.0224L113.241 86.944L136.35 102.427L145.335 95.0889Z" fill="#2F2E41"/>
<path d="M74.5276 48.1584L78.2565 34.3287L90.72 34.8177L93.9193 44.8504L74.5276 48.1584Z" fill="#FCB4B4"/>
<path opacity="0.1" d="M74.5276 48.1584L78.2565 34.3287L90.72 34.8177L93.9193 44.8504L74.5276 48.1584Z" fill="black"/>
<path d="M84.1797 38.0396C91.8859 38.0396 98.133 32.9437 98.133 26.6576C98.133 20.3715 91.8859 15.2756 84.1797 15.2756C76.4734 15.2756 70.2263 20.3715 70.2263 26.6576C70.2263 32.9437 76.4734 38.0396 84.1797 38.0396Z" fill="#FCB4B4"/>
<path d="M77.9383 31.0531C77.9383 31.0531 76.5307 31.042 73.6027 30.5978C70.6748 30.1537 75.7584 35.7347 75.7584 35.7347C61.9797 31.0415 66.3889 19.1374 66.3889 19.1374C52.405 16.956 58.2631 6.81555 58.2631 6.81555C58.2631 6.81555 62.8727 -0.440601 77.0428 0.0211377C91.2129 0.482877 84.5187 11.8831 84.5187 11.8831C93.7508 11.8973 94.7895 18.6844 94.7895 18.6844C94.7895 18.6844 91.4614 19.0233 85.413 20.2755C79.3647 21.5276 77.9383 31.0531 77.9383 31.0531Z" fill="#2F2E41"/>
<path d="M77.3851 43.8029L76.755 42.8018C76.755 42.8018 65.5422 43.862 63.7024 45.2615C61.8625 46.661 57.6572 52.8784 57.6572 52.8784L66.8563 59.3103L77.3851 43.8029Z" fill="#FFB6B6"/>
<path d="M91.2997 43.5598C91.2997 43.5598 99.7103 41.7298 104.441 45.589C109.172 49.4481 114.692 56.5232 114.692 56.5232L114.429 62.0975L101.287 56.93L91.2997 43.5598Z" fill="#FFB6B6"/>
<path d="M93.4438 42.8018C93.4438 42.8018 104.441 39.5859 111.538 46.4466C118.634 53.3073 120.737 74.9613 120.737 74.9613C120.737 74.9613 136.77 115.053 132.827 115.482C128.885 115.911 104.825 117.096 104.825 117.096L96.5564 73.4605L92.8767 42.8018L93.4438 42.8018Z" fill="#2F2E41"/>
<path d="M68.1706 81.3932L65.5422 89.1115L101.287 91.2554C101.287 91.2554 99.9732 84.8033 101.287 82.455L68.1706 81.3932Z" fill="#FCB4B4"/>
<path d="M88.4086 131.562L89.9856 150L109.835 149.571L109.172 130.919L88.4086 131.562Z" fill="#FCB4B4"/>
<path d="M57.4405 129.738L51.6121 149.786L72.3912 149.671L77.6853 133.284L57.4405 129.738Z" fill="#FCB4B4"/>
<path d="M92.8767 42.8018H76.755L63.7024 56.952L66.5935 85.8955C66.5935 85.8955 73.1643 84.3947 82.3635 84.3947H102.076C102.076 84.3947 99.1847 76.8908 102.864 73.8893C106.544 70.8877 103.916 56.952 103.916 56.952L92.8767 42.8018Z" fill="#FF6863"/>
<path d="M64.228 86.7531L49.5094 130.276C49.5094 130.276 71.1826 137.379 84.2637 135.328C97.3448 133.277 115.217 132.634 115.217 132.634L102.601 88.4682L64.228 86.7531Z" fill="#2F2E41"/>
<path d="M98.2638 102.677C101.44 104.859 102.634 107.966 100.931 109.614C99.2279 111.263 95.2729 110.83 92.0958 108.646C90.812 107.788 89.7988 106.691 89.141 105.448L75.8258 96.0619L81.3589 91.0589L93.8979 100.844C95.5118 101.161 97.0088 101.79 98.2638 102.677Z" fill="#FCB4B4"/>
<path d="M90.1403 95.0889L73.8629 78.0389L58.4458 55.0224L58.046 86.944L81.1556 102.427L90.1403 95.0889Z" fill="#2F2E41"/>
<path d="M77.8539 42.8018C77.8539 42.8018 66.8564 39.5859 59.7599 46.4466C52.6635 53.3073 50.5608 74.9613 50.5608 74.9613C50.5608 74.9613 34.5281 115.053 38.4705 115.482C42.413 115.911 66.4726 117.096 66.4726 117.096L74.7413 73.4605L78.421 42.8018L77.8539 42.8018Z" fill="#2F2E41"/>
<path d="M153.328 34.6548H152.802V109.265H153.328V34.6548Z" fill="#3F3D56"/>
<path d="M7.19347 111.194C12.4238 113.945 17.323 117.628 21.9121 122.171V129.118C19.6727 128.496 11.1254 125.919 7.75067 121.843C3.85025 117.133 3.15637 109.983 6.40497 108.193C7.25128 107.727 8.27896 107.67 9.4065 107.925C12.9626 110.011 16.3637 112.541 19.6123 115.489C20.7635 116.931 21.4758 118.769 21.9121 120.626V120.713C17.7094 115.941 12.7681 112.845 7.19347 111.194Z" fill="#FF6863"/>
<path d="M6.93064 68.5294C12.161 71.2801 17.0602 74.9634 21.6492 79.5065V81.093C21.2103 80.9708 20.5322 80.7757 19.6964 80.5077C15.9432 76.878 11.6642 74.4339 6.93064 73.0317C10.2423 74.7726 13.4226 76.8887 16.4741 79.3607C13.2465 78.0936 9.47222 76.2155 7.48784 73.8186C7.27758 73.5656 7.07782 73.3104 6.88859 73.0532C3.55062 68.5337 3.32984 63.5768 6.40497 61.8831C9.65357 60.0929 15.3492 62.6292 19.2496 67.3374C21.5047 70.0623 22.1381 74.2902 22.2669 77.3668C22.0593 77.5898 21.8542 77.8171 21.6492 78.0486C17.4465 73.2761 12.5053 70.1803 6.93064 68.5294Z" fill="#FF6863"/>
<path d="M36.7043 93.8722V93.8743C36.3311 94.7169 35.8632 95.5681 35.306 96.4064C34.4781 97.6541 33.206 98.8119 31.7657 99.8474C30.2229 100.958 28.4829 101.927 26.8822 102.714C24.6482 103.814 22.6848 104.56 21.9121 104.843V104.168C26.3513 99.8581 31.0718 96.3463 36.105 93.7007C30.759 95.2829 25.9992 98.1987 21.9121 102.643V99.6652C26.3513 95.3558 31.0718 91.844 36.105 89.1983C30.759 90.7806 25.9992 93.6964 21.9121 98.1408V95.1629C26.2935 90.9114 30.9456 87.436 35.9053 84.8032C38.2287 86.3276 38.4311 90.0045 36.7043 93.8722Z" fill="#FF6863"/>
<path d="M22.175 75.1757H21.6493V149.786H22.175V75.1757Z" fill="#3F3D56"/>
</g>
<defs>
<filter id="filter0_d_18_113" x="-4" y="0" width="177" height="158" filterUnits="userSpaceOnUse" color-interpolation-filters="sRGB">
<feFlood flood-opacity="0" result="BackgroundImageFix"/>
<feColorMatrix in="SourceAlpha" type="matrix" values="0 0 0 0 0 0 0 0 0 0 0 0 0 0 0 0 0 0 127 0" result="hardAlpha"/>
<feOffset dy="4"/>
<feGaussianBlur stdDeviation="2"/>
<feComposite in2="hardAlpha" operator="out"/>
<feColorMatrix type="matrix" values="0 0 0 0 0 0 0 0 0 0 0 0 0 0 0 0 0 0 0.25 0"/>
<feBlend mode="normal" in2="BackgroundImageFix" result="effect1_dropShadow_18_113"/>
<feBlend mode="normal" in="SourceGraphic" in2="effect1_dropShadow_18_113" result="shape"/>
</filter>
<clipPath id="clip0_18_113">
<rect width="169" height="150" fill="white"/>
</clipPath>
</defs>
</svg>
